<?xml version="1.0" standalone="no"?>
<!DOCTYPE svg PUBLIC "-//W3C//DTD SVG 20010904//EN"
 "http://www.w3.org/TR/2001/REC-SVG-20010904/DTD/svg10.dtd">
<svg version="1.0" xmlns="http://www.w3.org/2000/svg"
 width="512.000000pt" height="512.000000pt" viewBox="0 0 512.000000 512.000000"
 preserveAspectRatio="xMidYMid meet">

<g transform="translate(0.000000,512.000000) scale(0.100000,-0.100000)"
fill="#000000" stroke="none">
<path d="M0 2555 l0 -2555 2560 0 2560 0 0 2555 0 2555 -2560 0 -2560 0 0
-2555z m1410 1940 c0 -41 -2 -45 -25 -45 -22 0 -25 4 -25 38 0 43 5 52 32 52
15 0 18 -8 18 -45z m2057 9 c7 -18 -17 -38 -31 -24 -11 11 -1 40 14 40 6 0 13
-7 17 -16z m38 -4 c3 -5 1 -10 -4 -10 -6 0 -11 5 -11 10 0 6 2 10 4 10 3 0 8
-4 11 -10z m675 -258 c0 -156 -3 -221 -12 -230 -9 -9 -113 -12 -405 -12 -378
0 -393 1 -403 19 -6 12 -10 104 -10 230 l0 211 415 0 415 0 0 -218z m-2830
178 c0 -17 -7 -20 -39 -20 -22 0 -43 5 -46 10 -11 19 6 30 46 30 32 0 39 -3
39 -20z m160 0 c0 -17 -7 -20 -45 -20 -38 0 -45 3 -45 20 0 17 7 20 45 20 38
0 45 -3 45 -20z m1344 -35 c10 -28 -5 -75 -25 -75 -16 0 -19 8 -19 45 0 37 3
45 19 45 10 0 21 -7 25 -15z m-1444 -35 c0 -27 -5 -43 -15 -47 -20 -7 -21 -6
-29 45 -6 40 -5 42 19 42 23 0 25 -4 25 -40z m-412 -32 c34 -34 -6 -90 -48
-68 -35 19 -20 80 20 80 9 0 21 -5 28 -12z m106 -17 c16 -17 16 -20 1 -35 -20
-19 -27 -20 -43 -4 -16 16 -15 45 1 51 20 9 23 8 41 -12z m1694 -13 c-3 -20
-9 -23 -43 -23 -34 0 -40 3 -43 23 -3 20 1 22 43 22 42 0 46 -2 43 -22z m152
-3 c0 -22 -4 -25 -39 -25 -42 0 -57 11 -47 35 3 10 20 15 46 15 36 0 40 -2 40
-25z m-97 -57 c6 -42 -1 -58 -24 -58 -16 0 -19 8 -19 45 0 37 3 45 19 45 13 0
20 -9 24 -32z m-353 -469 l0 -451 -29 -29 -29 -29 -162 0 c-158 0 -163 1 -192
25 -16 14 -37 25 -46 25 -9 0 -25 14 -34 30 -22 38 -70 59 -154 67 l-64 6 0
33 c0 41 -30 74 -66 74 -28 0 -84 -49 -84 -73 0 -12 -9 -14 -40 -10 -74 10
-102 -46 -59 -116 11 -18 19 -34 17 -35 -35 -22 -81 -26 -263 -26 l-205 0 0
-233 c0 -225 -1 -235 -21 -253 -20 -18 -40 -19 -284 -19 -244 0 -264 1 -284
19 -20 19 -21 27 -21 288 0 334 -14 308 170 308 l130 0 0 425 0 425 860 0 860
0 0 -451z m1239 -24 c16 -8 34 -28 40 -46 14 -41 14 -207 0 -248 -21 -60 -26
-61 -472 -61 l-405 0 -48 -65 c-27 -35 -52 -64 -56 -65 -5 0 -8 95 -8 210 0
227 6 261 53 280 12 5 212 9 445 9 353 1 428 -1 451 -14z m788 -251 c62 -21
103 -51 103 -74 0 -29 -21 -29 -88 3 -54 25 -72 29 -117 24 -32 -3 -75 -17
-104 -34 -38 -21 -53 -25 -62 -16 -18 18 -1 48 43 73 75 42 148 50 225 24z
m11 -104 c33 -15 42 -24 42 -45 0 -19 -5 -25 -22 -25 -13 1 -34 7 -48 15 -35
20 -97 18 -146 -4 -77 -35 -90 18 -14 57 55 28 129 29 188 2z m-34 -90 c19 -7
26 -17 26 -36 0 -25 -2 -26 -37 -19 -21 4 -45 7 -53 7 -8 0 -32 -3 -52 -7 -34
-7 -38 -5 -38 13 0 44 87 68 154 42z m-36 -86 c12 -8 22 -26 22 -39 0 -25 -24
-55 -43 -55 -25 0 -57 32 -57 55 0 20 32 55 50 55 3 0 16 -7 28 -16z m-2694
-15 c18 -9 33 -9 56 0 29 10 34 8 52 -14 11 -14 30 -25 44 -25 21 0 24 -5 24
-35 0 -38 21 -98 38 -109 7 -4 10 10 9 40 -2 49 13 69 61 81 35 8 72 -31 72
-77 0 -35 -35 -90 -57 -90 -5 0 -16 -22 -26 -49 -14 -40 -15 -58 -7 -102 6
-29 14 -57 18 -60 4 -4 25 -9 47 -11 l40 -3 -105 -53 c-169 -85 -250 -82 -250
10 0 31 4 38 19 38 12 0 20 9 23 25 5 22 2 25 -24 25 -62 0 -148 67 -177 138
-7 18 -19 32 -27 32 -7 0 -25 11 -40 24 -58 49 -20 146 57 146 24 0 29 4 29
25 0 21 5 25 28 25 16 0 37 7 48 15 23 18 18 17 48 4z m1463 -49 c4 -17 13
-20 52 -19 25 0 55 4 66 8 15 6 28 1 50 -17 36 -30 98 -58 102 -46 10 28 23
38 33 28 8 -8 5 -21 -13 -46 -19 -29 -27 -34 -41 -26 -12 7 -21 7 -28 0 -15
-15 -1 -32 26 -32 20 0 25 -6 30 -44 15 -98 -38 -194 -126 -231 -112 -46 -253
19 -275 127 -3 15 -14 30 -25 34 -10 3 -26 21 -35 39 -34 71 26 131 86 87 l30
-22 26 55 c23 46 25 59 17 84 -6 16 -8 32 -5 35 12 12 25 6 30 -14z m743 -55
c0 -41 -2 -45 -25 -45 -23 0 -25 4 -25 45 0 41 2 45 25 45 23 0 25 -4 25 -45z
m-60 -70 c0 -23 -4 -25 -45 -25 -37 0 -45 3 -45 18 0 27 9 32 52 32 34 0 38
-3 38 -25z m158 -2 c3 -21 -1 -23 -42 -23 -43 0 -46 2 -46 26 0 23 3 25 43 22
35 -2 43 -7 45 -25z m-100 -75 c-2 -36 -7 -44 -25 -46 -21 -3 -23 1 -23 42 0
43 2 46 26 46 23 0 25 -3 22 -42z m-2708 -183 c0 -38 -3 -45 -20 -45 -17 0
-20 7 -20 45 0 38 3 45 20 45 17 0 20 -7 20 -45z m-52 -72 c3 -21 -1 -23 -42
-23 -43 0 -46 2 -46 26 0 23 3 25 43 22 35 -2 43 -7 45 -25z m152 2 c0 -23 -4
-25 -45 -25 -37 0 -45 3 -45 18 0 27 9 32 52 32 34 0 38 -3 38 -25z m1859 -21
c60 -19 86 -24 89 -16 5 16 44 15 121 -4 90 -22 125 -46 172 -115 22 -33 44
-57 49 -54 23 14 23 12 -50 -580 -11 -93 -23 -185 -26 -202 l-6 -33 48 0 c27
0 150 -9 274 -20 124 -11 235 -20 248 -20 13 0 21 -4 18 -8 -3 -5 9 -6 26 -4
35 5 37 -11 -26 212 -38 137 -43 183 -16 154 4 -5 35 -108 68 -229 80 -289 77
-275 58 -275 -9 0 -16 6 -16 13 -1 37 -15 39 -119 11 -90 -24 -102 -30 -99
-48 3 -20 9 -21 191 -24 153 -2 193 0 217 13 33 17 45 49 37 101 -5 30 -3 34
11 30 9 -2 35 -7 57 -11 22 -4 76 -18 120 -32 91 -28 132 -61 115 -94 -10 -17
-7 -19 30 -19 33 0 40 -3 40 -20 0 -17 -7 -20 -45 -20 -33 0 -45 4 -45 15 0
19 -4 19 -41 -1 -17 -8 -65 -24 -107 -35 -72 -19 -108 -20 -599 -19 -513 1
-523 0 -543 -20 -11 -11 -20 -33 -20 -50 l0 -30 530 0 530 0 0 -283 c0 -207
-3 -286 -12 -295 -9 -9 -138 -12 -520 -12 -491 0 -508 1 -518 19 -6 12 -10
123 -10 290 l0 270 -117 -5 c-65 -2 -160 -7 -210 -10 l-93 -6 0 -125 c0 -71
-4 -123 -9 -121 -5 2 -30 31 -55 65 l-45 62 -420 3 c-397 3 -420 4 -440 22
-12 11 -24 37 -27 58 l-7 38 -61 0 c-230 0 -858 39 -1156 71 -660 72 -844 180
-462 273 90 22 97 25 95 47 -1 13 -18 139 -38 280 -19 140 -35 267 -35 282 0
15 12 41 29 59 l29 33 163 -3 163 -4 -43 42 c-24 23 -54 65 -66 93 -13 29 -24
44 -24 34 -1 -34 -36 -15 -39 21 -2 19 -9 32 -17 32 -21 0 -30 22 -14 34 8 6
14 20 14 31 0 13 8 21 22 23 15 2 23 10 23 23 0 39 62 14 132 -54 37 -37 88
-131 88 -164 0 -29 322 -133 410 -133 73 0 117 -20 146 -67 10 -15 31 -43 48
-61 l30 -32 -20 -20 -20 -21 25 -176 25 -176 90 7 c95 7 553 16 911 19 l210 2
18 110 c15 98 16 114 3 145 -8 19 -18 59 -21 88 l-7 52 -44 0 c-51 0 -52 2
-30 107 33 156 88 271 169 355 64 66 122 95 207 103 111 10 130 15 130 31 0 9
6 13 13 10 6 -2 50 -17 96 -32z m-1959 -59 c0 -38 -3 -45 -20 -45 -17 0 -20 7
-20 45 0 38 3 45 20 45 17 0 20 -7 20 -45z m3025 -388 c63 -54 17 -156 -64
-143 -45 7 -71 38 -71 83 0 72 80 108 135 60z m-1869 -67 l91 0 -4 -52 c-7
-77 -19 -110 -56 -148 -74 -76 -196 -103 -457 -99 -102 2 -201 -1 -221 -5 -28
-6 -48 -3 -87 14 -49 21 -70 22 -116 4 -11 -4 -16 0 -16 15 0 14 -5 19 -16 14
-26 -10 -55 31 -48 67 17 80 199 102 297 36 l35 -24 203 64 c254 79 259 82
259 106 0 16 5 19 23 14 12 -3 63 -6 113 -6z m134 -346 c0 -41 -2 -45 -22 -42
-19 2 -24 10 -26 46 -3 39 -1 42 22 42 24 0 26 -3 26 -46z m98 -71 c3 -21 -1
-23 -42 -23 -38 0 -46 3 -46 18 0 27 10 33 50 30 28 -2 36 -8 38 -25z m-150 0
c-2 -13 -15 -19 -46 -21 -37 -3 -42 -1 -42 17 0 18 6 21 46 21 38 0 45 -3 42
-17z m2252 -418 c0 -38 -3 -45 -20 -45 -17 0 -20 7 -20 45 0 38 3 45 20 45 17
0 20 -7 20 -45z m-1162 -37 c-3 -25 -17 -32 -37 -19 -19 12 -6 41 19 41 16 0
21 -5 18 -22z m57 -8 c-5 -8 -11 -8 -17 -2 -6 6 -7 16 -3 22 5 8 11 8 17 2 6
-6 7 -16 3 -22z m-2945 -139 c0 -43 -9 -55 -34 -45 -11 4 -16 19 -16 45 0 35
3 39 25 39 22 0 25 -4 25 -39z m-57 -65 c8 -20 -2 -26 -45 -26 -31 0 -38 3
-38 20 0 17 7 20 39 20 24 0 41 -5 44 -14z m157 -6 c0 -17 -7 -20 -45 -20 -38
0 -45 3 -45 20 0 17 7 20 45 20 38 0 45 -3 45 -20z m-100 -75 c0 -41 -2 -45
-25 -45 -23 0 -25 4 -25 45 0 41 2 45 25 45 23 0 25 -4 25 -45z m805 -77 c45
-20 34 -30 -35 -32 -31 -1 -35 -4 -38 -30 -4 -33 13 -49 46 -41 12 3 31 1 42
-5 12 -6 20 -7 20 -1 0 5 18 7 42 4 29 -4 39 -3 34 5 -4 7 -15 12 -24 12 -24
0 -62 28 -62 46 0 24 38 54 69 54 44 0 59 -9 54 -30 -4 -15 -11 -17 -39 -13
-46 8 -43 -11 4 -23 32 -8 37 -13 40 -41 4 -41 -24 -57 -82 -49 -50 7 -52 7
-101 0 -57 -8 -95 22 -95 76 0 64 61 97 125 68z m279 6 c11 -4 13 -11 6 -23
-6 -13 -18 -16 -39 -13 -19 2 -31 0 -31 -7 0 -6 7 -11 15 -11 35 0 65 -23 65
-51 0 -33 -24 -49 -72 -49 -42 0 -60 12 -53 33 5 12 15 14 41 10 22 -4 34 -2
34 6 0 6 -8 11 -18 11 -26 0 -62 29 -62 50 0 37 67 62 114 44z m1076 -159 c0
-38 -3 -45 -20 -45 -17 0 -20 7 -20 45 0 38 3 45 20 45 17 0 20 -7 20 -45z
m-50 -70 c0 -23 -4 -25 -45 -25 -41 0 -45 2 -45 25 0 23 4 25 45 25 41 0 45
-2 45 -25z m150 -1 c0 -23 -3 -25 -42 -22 -36 2 -44 7 -46 26 -3 20 1 22 42
22 43 0 46 -2 46 -26z m-100 -69 c0 -38 -3 -45 -20 -45 -17 0 -20 7 -20 45 0
38 3 45 20 45 17 0 20 -7 20 -45z"/>
<path d="M1046 4083 c-9 -25 -14 -49 -11 -51 5 -5 21 33 31 73 11 43 -3 27
-20 -22z"/>
<path d="M1190 4090 l0 -30 428 2 427 3 0 25 0 25 -427 3 -428 2 0 -30z"/>
<path d="M995 4098 c-30 -16 -31 -18 -15 -28 26 -16 46 -12 24 5 -17 13 -17
14 -1 15 9 0 17 5 17 10 0 12 0 12 -25 -2z"/>
<path d="M1100 4090 c13 -9 13 -11 0 -20 -21 -13 -4 -13 22 1 17 9 18 13 7 20
-8 5 -21 9 -29 9 -13 0 -13 -1 0 -10z"/>
<path d="M960 3865 l0 -25 425 0 425 0 0 25 0 25 -425 0 -425 0 0 -25z"/>
<path d="M960 3765 l0 -25 225 0 225 0 0 25 0 25 -225 0 -225 0 0 -25z"/>
<path d="M962 3573 l3 -28 188 -3 187 -3 0 31 0 30 -191 0 -190 0 3 -27z"/>
<path d="M960 3475 l0 -25 320 0 320 0 0 25 0 25 -320 0 -320 0 0 -25z"/>
<path d="M3050 3580 c0 -56 3 -70 15 -70 11 0 15 11 15 35 0 23 6 38 16 42 20
7 34 -13 34 -49 0 -18 5 -28 15 -28 11 0 15 11 15 39 0 48 -23 75 -56 67 -19
-5 -24 -2 -24 14 0 11 -7 20 -15 20 -12 0 -15 -14 -15 -70z"/>
<path d="M3320 3626 c0 -8 -6 -17 -12 -20 -10 -5 -10 -7 0 -12 6 -3 12 -18 12
-33 0 -34 17 -51 50 -50 l25 0 -22 16 c-26 18 -30 51 -8 59 8 4 15 10 15 15 0
5 -7 9 -15 9 -8 0 -15 7 -15 15 0 8 -7 15 -15 15 -8 0 -15 -6 -15 -14z"/>
<path d="M2910 3544 c0 -59 3 -74 15 -74 9 0 15 9 15 24 0 19 4 22 25 18 32
-6 55 13 55 47 0 41 -15 54 -64 57 l-46 3 0 -75z m75 16 c0 -16 -6 -26 -18
-28 -19 -4 -32 20 -23 44 9 25 41 13 41 -16z"/>
<path d="M3180 3611 c0 -5 9 -30 20 -56 21 -48 19 -65 -6 -65 -8 0 -14 -5 -14
-11 0 -6 12 -9 28 -7 27 3 52 40 81 121 16 44 -17 35 -36 -10 l-16 -38 -16 37
c-14 34 -41 52 -41 29z"/>
<path d="M3422 3604 c-44 -30 -18 -94 38 -94 39 0 65 37 51 72 -15 39 -52 49
-89 22z m56 -38 c2 -10 -1 -23 -7 -29 -15 -15 -46 16 -37 38 8 21 40 15 44 -9z"/>
<path d="M3540 3564 c0 -41 4 -54 15 -54 10 0 15 10 15 28 0 36 14 56 34 49
10 -4 16 -19 16 -42 0 -24 4 -35 15 -35 19 0 21 83 3 98 -7 5 -32 10 -55 9
l-43 0 0 -53z"/>
<path d="M1575 3085 c-30 -29 -32 -68 -5 -95 33 -33 40 -25 33 40 l-6 60 32
-6 c36 -7 44 10 9 20 -34 9 -37 8 -63 -19z"/>
<path d="M1678 3103 c7 -3 16 -2 19 1 4 3 -2 6 -13 5 -11 0 -14 -3 -6 -6z"/>
<path d="M1820 3100 c-12 -8 -12 -10 2 -15 9 -4 14 -13 11 -21 -6 -17 15 -46
29 -38 6 4 7 19 4 35 -4 19 -1 29 7 29 8 0 7 4 -3 10 -19 12 -31 12 -50 0z"/>
<path d="M1652 3038 c2 -12 11 -24 21 -26 14 -3 18 1 15 20 -2 12 -11 24 -21
26 -14 3 -18 -1 -15 -20z"/>
<path d="M3257 3043 c-12 -11 -8 -21 12 -28 24 -7 51 4 51 21 0 14 -51 20 -63
7z"/>
<path d="M3075 2980 c-3 -5 3 -10 14 -10 25 0 39 -20 14 -20 -17 -1 -17 -1 0
-14 9 -7 17 -19 17 -27 0 -21 20 11 20 33 0 33 -50 63 -65 38z"/>
<path d="M3284 2965 c-7 -18 2 -45 15 -45 12 0 24 37 16 50 -9 15 -25 12 -31
-5z"/>
<path d="M3450 2935 c0 -20 4 -26 18 -23 9 2 17 12 17 23 0 11 -8 21 -17 23
-14 3 -18 -3 -18 -23z"/>
<path d="M3383 2895 c5 -36 4 -45 -8 -45 -8 0 -15 -4 -15 -10 0 -5 18 -10 41
-10 l40 0 -20 26 c-12 15 -21 40 -21 55 0 16 -5 29 -11 29 -8 0 -10 -14 -6
-45z"/>
<path d="M3290 2816 c0 -26 47 -51 77 -40 37 13 39 30 5 37 -17 3 -41 9 -56
13 -20 5 -26 2 -26 -10z"/>
<path d="M2860 2080 c0 -9 31 -30 44 -30 16 0 3 18 -19 28 -14 7 -25 8 -25 2z"/>
<path d="M3500 1871 c0 -5 10 -11 23 -15 36 -9 43 -6 23 9 -22 17 -46 20 -46
6z"/>
<path d="M3509 1825 c18 -9 36 -14 39 -11 9 10 -2 15 -39 21 l-34 5 34 -15z"/>
<path d="M3476 1801 c5 -5 23 -12 39 -16 29 -6 29 -6 11 9 -21 17 -67 23 -50
7z"/>
<path d="M2764 1660 c-57 -13 -134 -87 -134 -129 0 -8 60 -11 210 -11 116 0
210 3 210 8 -1 4 -32 26 -70 50 -39 24 -70 47 -70 52 0 8 -43 24 -90 33 -14 2
-39 1 -56 -3z"/>
<path d="M3100 1550 l0 -30 545 0 545 0 0 30 0 30 -545 0 -545 0 0 -30z"/>
<path d="M1497 1550 c3 -11 10 -17 15 -14 5 3 4 -3 -3 -14 -20 -32 -7 -34 56
-10 46 17 54 23 39 29 -13 5 -4 8 26 8 25 1 52 6 60 11 10 6 -21 9 -92 9 -100
0 -106 -1 -101 -19z"/>
<path d="M3715 1079 c-107 -31 -127 -182 -32 -239 39 -24 116 -26 157 -5 35
18 37 26 12 49 -17 15 -21 15 -50 1 -81 -41 -152 56 -87 120 28 29 61 32 94 9
22 -15 24 -15 44 4 26 26 12 47 -42 62 -42 11 -55 11 -96 -1z"/>
<path d="M3970 1010 c0 -27 -3 -30 -30 -30 -25 0 -30 -4 -30 -25 0 -21 5 -25
30 -25 28 0 30 -3 30 -35 0 -30 3 -35 24 -35 21 0 25 6 28 33 3 28 7 32 36 35
26 3 32 7 32 28 0 21 -5 24 -35 24 -32 0 -35 2 -35 30 0 25 -4 30 -25 30 -21
0 -25 -5 -25 -30z"/>
<path d="M4210 1010 c0 -28 -3 -30 -35 -30 -30 0 -35 -3 -35 -24 0 -21 6 -25
33 -28 28 -3 32 -7 35 -35 3 -27 7 -33 28 -33 21 0 24 5 24 35 0 32 2 35 30
35 25 0 30 4 30 25 0 21 -5 25 -30 25 -27 0 -30 3 -30 30 0 25 -4 30 -25 30
-21 0 -25 -5 -25 -30z"/>
</g>
</svg>
