<?xml version="1.0" standalone="no"?>
<!DOCTYPE svg PUBLIC "-//W3C//DTD SVG 20010904//EN"
 "http://www.w3.org/TR/2001/REC-SVG-20010904/DTD/svg10.dtd">
<svg version="1.0" xmlns="http://www.w3.org/2000/svg"
 width="736.000000pt" height="736.000000pt" viewBox="0 0 736.000000 736.000000"
 preserveAspectRatio="xMidYMid meet">

<g transform="translate(0.000000,736.000000) scale(0.100000,-0.100000)"
fill="#000000" stroke="none">
<path d="M0 3680 l0 -3680 3680 0 3680 0 -2 497 -3 498 -65 23 c-75 27 -69 23
-75 53 -3 13 -9 25 -15 27 -6 2 -7 8 -4 14 4 6 -2 8 -16 3 -15 -5 -20 -4 -16
4 4 6 0 11 -8 11 -14 0 -21 -18 -17 -42 2 -16 -39 -7 -120 28 -46 20 -89 41
-96 46 -17 14 -41 139 -59 313 -2 28 -10 65 -15 83 -15 45 -5 51 30 18 24 -23
32 -25 54 -17 15 6 27 7 27 3 0 -4 7 2 15 12 9 12 15 42 15 72 0 29 5 65 12
81 l12 28 6 -45 c4 -25 8 -35 8 -23 1 14 7 20 15 17 17 -6 47 57 40 84 -2 11
0 23 6 26 6 4 11 0 11 -8 0 -39 64 -27 86 15 l15 29 -68 0 c-38 0 -63 4 -56 8
7 5 9 13 3 21 -7 12 -10 12 -22 0 -7 -8 -18 -24 -24 -34 -12 -21 -74 -34 -74
-16 0 6 9 11 19 11 33 0 51 11 51 31 0 21 35 39 74 39 13 0 35 -12 49 -26 14
-14 31 -23 37 -19 5 3 10 2 10 -3 0 -6 34 -10 79 -10 l78 1 2 59 2 59 -78 -7
c-131 -10 -407 -21 -417 -16 -27 14 47 24 237 32 116 6 222 12 235 15 l22 5 0
281 c0 274 -1 281 -19 268 -10 -8 -41 -29 -67 -48 -27 -19 -66 -50 -86 -69
-21 -20 -40 -33 -43 -30 -9 9 97 119 160 168 l55 42 0 1590 c0 1057 -3 1587
-10 1583 -6 -3 -10 -23 -11 -43 0 -20 -6 -59 -12 -87 -10 -42 -16 -50 -37 -53
-16 -2 -38 8 -60 27 l-35 29 23 31 c12 16 22 38 22 48 0 22 -28 68 -65 107
l-28 30 29 23 c16 13 34 28 41 33 6 5 41 7 77 4 l66 -6 0 61 c0 37 -4 61 -11
61 -20 0 -79 53 -77 68 5 27 -74 64 -117 56 -19 -3 -35 -10 -35 -15 0 -5 -9
-9 -20 -9 -13 0 -20 -7 -20 -20 0 -26 -40 -28 -41 -2 0 12 -3 10 -10 -7 -11
-27 -3 -64 12 -55 5 3 7 10 4 15 -4 5 6 4 21 -1 21 -8 29 -8 35 2 6 10 11 10
20 1 15 -15 2 -34 -19 -31 -10 2 -17 -4 -17 -12 0 -8 8 -14 18 -14 9 1 17 -2
17 -7 0 -5 -7 -9 -15 -9 -27 0 -35 -34 -15 -65 20 -31 13 -55 -17 -55 -7 0
-16 -7 -20 -16 -3 -9 -18 -30 -34 -46 -43 -47 -43 -79 -1 -160 2 -5 -2 -8 -9
-8 -8 0 -35 -15 -61 -32 -43 -29 -48 -37 -48 -70 0 -20 5 -40 11 -43 28 -18
-1 -115 -48 -163 -7 -7 -14 -23 -14 -35 -1 -12 -2 -30 -3 -39 -1 -10 -11 -24
-22 -33 -19 -13 -23 -13 -27 0 -4 9 -1 12 9 8 8 -3 14 1 14 11 0 9 -4 16 -9
16 -5 0 -14 13 -21 29 -6 16 -20 31 -31 34 -14 4 -17 10 -12 24 6 16 5 16 -10
5 -25 -21 -33 -8 -35 54 -1 47 2 59 21 75 14 12 17 18 8 19 -11 0 -11 3 -1 15
9 10 9 15 1 15 -6 0 -11 6 -11 13 0 6 -16 20 -35 29 -26 13 -33 14 -29 4 3 -8
0 -17 -5 -21 -6 -3 -9 -11 -6 -16 4 -5 0 -9 -7 -9 -7 0 -18 -10 -23 -22 -7
-17 -18 -23 -40 -23 -16 0 -33 5 -37 10 -14 19 -8 55 11 72 11 9 17 21 14 26
-4 6 -1 7 7 2 19 -12 70 -14 64 -3 -3 5 -14 6 -24 3 -10 -3 -21 -1 -25 5 -11
18 22 22 59 6 20 -8 61 -20 92 -25 33 -6 62 -18 69 -28 13 -17 14 -17 32 0 11
9 24 17 29 17 5 0 10 9 11 20 2 25 -42 28 -55 3 -9 -15 -11 -15 -26 0 -16 15
-15 17 10 23 26 7 26 8 8 21 -37 28 -51 33 -51 18 0 -7 6 -11 14 -8 15 6 18
-13 4 -22 -27 -16 -124 159 -191 343 -13 34 -24 61 -26 59 -7 -7 57 -180 97
-267 22 -47 53 -102 70 -122 33 -42 29 -44 -48 -24 -57 15 -109 44 -160 89
-28 25 -33 36 -34 76 0 25 -4 64 -8 86 -7 29 -9 4 -10 -95 -1 -85 -9 -176 -21
-245 -11 -60 -20 -114 -20 -118 0 -5 -4 -6 -10 -2 -5 3 -6 13 -3 21 3 8 1 25
-5 37 -24 51 -35 149 -33 300 1 86 -3 157 -7 157 -5 0 -12 -57 -16 -127 -8
-159 -30 -344 -55 -460 -33 -154 -54 -233 -61 -233 -4 0 -15 24 -24 53 -41
128 -77 204 -103 216 -17 8 -23 16 -19 28 15 37 46 195 45 225 l-1 33 -9 -30
c-5 -16 -19 -75 -32 -130 l-22 -100 -50 -5 c-28 -3 -65 -13 -83 -22 -32 -16
-34 -16 -27 0 23 55 64 267 65 330 0 51 -17 8 -23 -55 -7 -77 -53 -273 -67
-287 -7 -7 -10 19 -11 70 0 43 -4 99 -8 124 -6 31 -9 -6 -9 -120 0 -91 3 -155
6 -142 8 26 53 55 120 77 40 14 54 14 87 3 33 -11 44 -22 63 -61 63 -134 102
-380 84 -528 -12 -91 -60 -217 -149 -389 -62 -121 -224 -377 -247 -392 -6 -4
-36 -6 -66 -3 -30 2 -122 7 -203 11 -114 5 -147 9 -143 19 2 7 10 31 16 53
l12 39 77 6 c144 9 173 26 277 159 91 114 156 215 153 232 -3 12 -10 6 -24
-21 -24 -46 -200 -281 -229 -306 -41 -34 -224 -68 -232 -42 -2 6 18 24 44 41
84 55 230 185 246 219 23 48 20 79 -16 153 -38 81 -39 106 -4 166 63 107 168
52 197 -104 17 -86 33 -103 24 -25 -9 76 -57 169 -93 184 -15 5 -42 13 -59 16
-18 4 -33 8 -33 9 0 9 58 155 68 171 l12 20 15 -20 c63 -84 93 -118 110 -127
14 -7 10 0 -11 23 -17 19 -45 59 -63 90 l-31 56 46 42 c40 37 49 42 77 35 38
-8 83 -30 92 -44 8 -13 25 -13 25 0 0 12 -82 60 -103 60 -10 0 -17 4 -17 10 0
13 45 24 70 17 11 -3 20 -1 20 4 0 17 -49 21 -82 5 -18 -9 -62 -43 -97 -76
-35 -33 -65 -59 -67 -57 -2 2 3 35 11 73 8 38 14 85 14 104 0 19 -9 -10 -18
-65 -47 -265 -137 -458 -314 -670 -14 -16 -28 -27 -31 -24 -9 8 25 102 66 184
62 124 186 487 176 517 -2 6 -12 -20 -22 -58 -24 -87 -96 -302 -127 -374 -37
-85 -123 -250 -157 -300 -51 -75 -162 -200 -177 -200 -14 0 -14 4 0 36 8 19
32 97 54 172 22 75 51 175 65 222 13 47 27 101 31 120 4 19 22 70 41 112 43
99 114 308 113 334 0 10 -17 -30 -38 -91 -76 -216 -156 -381 -249 -510 -31
-44 -63 -80 -70 -80 -7 0 -21 -15 -32 -33 -11 -17 -16 -32 -11 -32 15 0 141
151 173 208 17 29 32 51 34 50 5 -6 -80 -321 -132 -492 -8 -26 -13 -51 -10
-54 12 -12 147 127 206 213 31 46 52 57 30 16 -16 -31 3 -25 34 10 15 17 30
28 33 26 2 -3 -25 -95 -62 -206 l-66 -201 -87 0 c-150 0 -541 27 -1172 81
-790 67 -821 69 -1102 69 -238 0 -279 -2 -292 -16 -9 -8 -16 -22 -16 -31 0
-12 -3 -13 -15 -3 -9 7 -26 9 -45 5 -23 -5 -37 -2 -51 11 -13 12 -34 18 -57
16 -38 -1 -452 -102 -715 -173 -81 -22 -151 -37 -156 -35 -4 3 -16 33 -25 67
-10 33 -20 58 -23 56 -3 -3 2 -30 11 -60 9 -30 16 -59 16 -64 0 -9 -64 -33
-88 -33 -16 0 -119 133 -174 223 -82 137 -139 326 -153 512 -4 50 -5 88 -2 85
3 -3 23 -39 45 -81 47 -92 118 -186 146 -193 13 -3 35 -31 55 -68 19 -35 47
-79 62 -98 15 -19 31 -47 34 -62 4 -16 11 -25 17 -22 5 3 20 -1 33 -10 31 -21
39 -20 30 2 -5 14 -83 315 -99 385 -7 29 8 19 53 -38 73 -92 162 -145 107 -64
-120 177 -200 420 -256 777 -7 39 -14 72 -17 72 -20 0 54 -371 103 -517 19
-59 62 -159 95 -222 32 -63 57 -116 55 -118 -5 -6 -92 100 -136 165 -33 48
-57 69 -68 58 -2 -3 6 -21 18 -41 16 -25 21 -45 16 -66 -3 -16 -1 -29 4 -29 6
0 10 -6 10 -13 0 -8 20 -83 44 -168 25 -84 43 -155 41 -157 -8 -8 -107 130
-142 198 -21 41 -41 76 -45 78 -13 6 -88 209 -126 341 -35 123 -53 160 -52
109 1 -27 15 -95 25 -123 6 -15 3 -14 -11 5 -20 27 -21 28 -23 63 -2 21 -2 21
-13 3 -8 -14 -8 -21 -1 -23 12 -4 5 -43 -7 -43 -9 0 -33 82 -55 190 -33 156
-46 303 -53 600 -6 253 -8 284 -13 185 -13 -279 26 -825 67 -929 5 -13 4 -17
-4 -12 -8 5 -10 2 -6 -8 3 -9 1 -16 -5 -16 -7 0 -16 10 -21 23 -8 20 -9 20
-10 2 0 -18 -2 -18 -20 5 -11 14 -18 30 -15 37 2 7 -2 18 -9 25 -7 8 -19 37
-26 66 -7 29 -14 52 -16 50 -3 -4 10 -101 22 -157 15 -69 -14 -20 -45 76 -33
104 -61 264 -61 351 0 58 -15 70 -24 20 -18 -100 -37 -285 -38 -365 -1 -51 -5
-90 -9 -88 -4 3 -20 56 -35 118 -21 86 -28 150 -34 277 -4 91 -8 149 -8 130
-3 -52 -45 -133 -98 -190 -52 -56 -161 -133 -175 -124 -5 3 -2 19 7 36 21 41
87 233 112 328 39 146 91 455 78 467 -3 4 -6 -2 -6 -13 0 -30 -72 -390 -81
-405 -11 -18 -18 -9 -21 24 -1 15 -6 27 -11 27 -15 0 3 53 21 66 19 13 21 77
4 166 -8 44 -7 49 25 90 18 24 45 53 59 64 16 13 25 29 22 40 -3 15 -8 12 -26
-18 -36 -59 -163 -170 -241 -212 -40 -21 -74 -36 -77 -33 -3 2 27 42 66 87 89
103 180 237 180 265 0 3 -17 -8 -37 -24 -41 -33 -192 -121 -207 -121 -5 0 3
15 18 33 155 193 372 594 531 982 33 81 115 257 166 358 l19 37 -580 0 -580 0
0 -3680z m618 2340 c-14 -22 -44 -38 -32 -17 14 23 27 37 35 37 5 0 4 -9 -3
-20z m5955 -641 c20 -18 9 -33 -17 -23 -12 5 -15 2 -9 -12 4 -12 3 -15 -5 -10
-7 4 -12 13 -12 21 0 7 -7 15 -15 19 -8 3 -15 12 -15 19 0 19 48 10 73 -14z
m-5983 0 c0 -8 5 -8 15 1 18 15 18 9 1 -55 -26 -101 -51 -128 -100 -109 -18 7
-22 39 -6 49 5 3 20 28 33 55 13 28 27 47 30 43 4 -3 7 1 7 10 0 10 5 17 10
17 6 0 10 -5 10 -11z m6251 -280 c19 -15 22 -22 13 -36 -6 -10 -23 -24 -37
-31 -35 -17 -78 2 -91 40 -8 23 -6 32 14 53 22 23 24 24 50 9 14 -9 37 -24 51
-35z m-5533 -314 c-3 -3 -9 2 -12 12 -6 14 -5 15 5 6 7 -7 10 -15 7 -18z m49
-127 c-3 -8 -6 -5 -6 6 -1 11 2 17 5 13 3 -3 4 -12 1 -19z m4361 -77 c36 -76
40 -123 14 -162 -24 -37 -231 -209 -251 -209 -14 0 -17 -12 33 143 36 110 53
148 89 194 25 32 50 68 56 81 7 12 15 22 19 22 4 -1 22 -31 40 -69z m-4344 48
c-3 -6 -3 -14 2 -18 12 -8 56 -93 45 -86 -5 3 -23 26 -40 52 -23 35 -28 49
-19 55 18 11 20 10 12 -3z m4742 -491 c-7 -35 -22 -50 -46 -45 -10 2 -14 11
-12 27 5 33 20 50 44 50 18 0 20 -5 14 -32z m-3423 -75 c5 -45 12 -72 23 -80
14 -10 14 -13 -4 -22 -15 -8 -21 -8 -24 1 -3 8 -10 8 -27 -1 -12 -7 -24 -11
-26 -9 -2 2 -6 35 -10 75 -7 71 -7 71 21 87 16 8 32 15 35 16 3 0 9 -30 12
-67z m42 -225 c3 -51 15 -158 25 -238 38 -303 34 -592 -11 -793 -12 -51 -26
-130 -32 -177 l-12 -85 -58 -3 c-70 -4 -74 3 -53 90 9 34 22 106 31 158 9 52
25 142 37 200 20 102 21 113 9 450 -7 190 -14 373 -17 407 l-5 63 33 13 c18 8
36 13 39 11 4 -2 10 -46 14 -96z m-2420 -857 c-3 -11 -13 -21 -22 -21 -9 0
-22 -8 -29 -17 -17 -24 -34 -6 -27 30 7 36 51 62 72 42 8 -7 10 -21 6 -34z
m148 -18 c-1 -6 13 -14 32 -17 42 -8 48 -18 40 -58 -5 -19 -10 -26 -15 -19 -5
8 -12 4 -24 -13 -23 -35 -40 -33 -56 9 -8 20 -20 41 -27 47 -17 13 -17 55 0
62 20 8 52 1 50 -11z m-146 -115 c21 -19 27 -21 45 -9 20 13 21 12 15 -23 -10
-63 -77 -124 -185 -171 -56 -24 -79 -13 -74 36 5 42 18 59 46 59 26 0 46 18
46 41 0 11 9 19 23 21 15 2 22 10 24 28 0 14 1 28 2 33 2 15 35 6 58 -15z
m1071 -236 c2 -7 -3 -12 -11 -12 -8 0 -17 -9 -20 -19 -3 -13 0 -18 8 -15 17 7
29 -27 14 -37 -16 -9 -49 32 -49 60 0 33 48 52 58 23z m-985 -26 c23 -18 21
-37 -7 -63 -22 -22 -25 -22 -55 -7 -43 21 -50 43 -22 66 27 21 59 23 84 4z
m6700 -277 c-13 -39 -19 -48 -21 -32 -3 22 26 98 35 89 2 -2 -4 -28 -14 -57z
m-4188 -586 c-5 -27 -16 -181 -35 -453 -15 -211 -22 -278 -29 -251 -6 22 -8
23 -23 8 -15 -15 -16 -15 -22 6 -8 30 -8 525 1 621 7 85 14 94 80 95 30 1 32
-1 28 -26z m3881 -191 c0 -21 1 -97 2 -169 2 -117 4 -133 19 -133 9 0 14 -3
10 -6 -3 -3 -22 -1 -41 6 l-36 12 0 167 0 168 23 -4 c20 -4 24 -11 23 -41z
m394 -462 c0 -13 -11 -13 -30 0 -12 8 -11 10 8 10 12 0 22 -4 22 -10z m-4365
-762 c-15 -104 -12 -99 -58 -92 -23 4 -44 8 -46 10 -6 5 20 98 31 111 6 7 26
13 45 13 l35 0 -7 -42z"/>
<path d="M6357 7349 c-9 -5 -24 -23 -32 -39 -13 -25 -13 -29 2 -34 9 -4 21 -2
27 4 5 5 18 10 28 10 14 0 18 8 18 35 0 37 -11 43 -43 24z"/>
<path d="M6580 7353 c1 -20 19 -35 35 -29 10 3 28 0 42 -9 13 -9 28 -13 33
-10 6 4 10 -9 10 -30 0 -20 5 -45 10 -56 8 -14 7 -19 -2 -19 -9 0 -9 -3 0 -12
19 -19 14 -28 -13 -28 -16 0 -31 -10 -42 -27 -10 -16 -24 -33 -32 -39 -11 -9
-11 -15 3 -42 20 -39 20 -52 0 -102 -11 -27 -24 -42 -40 -46 -13 -3 -24 -9
-24 -13 0 -4 -13 -15 -30 -24 -59 -35 -24 -59 40 -28 49 24 86 14 77 -20 -3
-10 -1 -19 4 -19 20 0 -13 -42 -40 -51 -31 -11 -65 -76 -55 -103 3 -9 2 -16
-2 -16 -5 0 -17 21 -28 46 -10 25 -20 43 -23 41 -4 -5 222 -700 239 -730 26
-50 -23 -22 -134 76 -38 32 -68 54 -68 49 0 -21 12 -42 22 -36 5 4 29 -11 51
-33 63 -59 163 -130 172 -121 2 2 -10 33 -28 68 -26 56 -31 75 -29 133 2 62 0
69 -19 74 -13 4 -18 11 -14 21 3 8 -1 25 -10 38 -8 13 -12 31 -9 41 8 21 101
113 115 113 5 0 9 9 9 20 0 12 7 21 18 21 34 3 97 -3 119 -12 13 -5 23 -5 23
0 0 5 21 12 46 16 41 6 49 4 74 -20 16 -15 39 -28 53 -29 14 0 23 -5 20 -10
-9 -15 61 6 86 25 13 11 34 19 47 19 13 0 35 5 49 12 l25 11 0 185 c0 166 -2
183 -16 171 -9 -8 -14 -25 -12 -45 1 -18 -1 -36 -4 -39 -11 -11 -72 13 -91 35
-11 13 -29 20 -55 20 -30 0 -46 -8 -80 -39 -43 -40 -48 -57 -36 -120 5 -21 12
-31 25 -31 11 0 19 -7 19 -15 0 -8 -4 -15 -9 -15 -21 0 -41 13 -41 26 0 14 -5
16 -49 18 -13 1 -29 10 -35 21 -6 10 -17 25 -23 33 -15 16 -17 42 -3 42 6 0
10 7 10 15 0 9 11 27 25 41 14 14 25 37 25 51 0 53 -84 91 -138 61 -25 -13
-50 -4 -63 23 -31 63 -32 70 -21 81 17 17 15 112 -3 155 -8 20 -13 38 -10 41
2 3 39 10 82 17 43 7 94 20 113 29 82 40 80 37 80 88 l0 48 -235 0 c-129 0
-235 -3 -235 -7z"/>
<path d="M6295 7260 c22 -45 29 -52 20 -20 -4 14 -14 32 -22 40 -12 12 -11 7
2 -20z"/>
<path d="M7324 7265 c-19 -9 -34 -24 -38 -39 -8 -32 37 -136 58 -136 13 0 16
16 16 95 0 52 -1 95 -2 94 -2 0 -17 -7 -34 -14z"/>
<path d="M6340 7157 c0 -11 30 -67 35 -67 6 0 -16 52 -27 65 -4 5 -8 6 -8 2z"/>
<path d="M6441 6884 c0 -11 3 -14 6 -6 3 7 2 16 -1 19 -3 4 -6 -2 -5 -13z"/>
<path d="M6470 6795 c0 -5 5 -17 10 -25 5 -8 10 -10 10 -5 0 6 -5 17 -10 25
-5 8 -10 11 -10 5z"/>
<path d="M2322 6425 c0 -16 2 -22 5 -12 2 9 2 23 0 30 -3 6 -5 -1 -5 -18z"/>
<path d="M2327 6353 c-3 -5 -7 -44 -10 -88 -3 -44 -3 -72 -1 -62 3 9 10 15 15
12 5 -4 9 26 9 69 0 72 -3 86 -13 69z"/>
<path d="M4649 6276 c-5 -52 -1 -60 21 -45 8 5 10 9 4 9 -6 0 -9 10 -7 24 3
13 1 32 -5 42 -8 14 -11 7 -13 -30z"/>
<path d="M3518 6253 c-3 -27 -1 -52 4 -57 4 -6 8 16 8 47 0 69 -6 74 -12 10z"/>
<path d="M4672 6180 c0 -14 2 -19 5 -12 2 6 2 18 0 25 -3 6 -5 1 -5 -13z"/>
<path d="M2295 6038 c-9 -146 -9 -606 0 -683 8 -75 34 -187 46 -200 6 -6 7 2
4 20 -19 101 -23 130 -19 134 6 6 77 -16 162 -50 41 -16 80 -29 88 -29 17 0
19 20 2 20 -7 0 -26 19 -43 41 -42 57 -84 87 -157 113 l-63 21 -8 65 c-4 36
-5 199 -2 363 4 163 4 297 2 297 -3 0 -8 -51 -12 -112z m142 -674 c44 -25 110
-97 94 -102 -5 -2 -31 5 -58 16 -26 11 -70 28 -97 38 -37 15 -50 25 -53 43 -7
47 37 49 114 5z"/>
<path d="M2342 6100 c0 -14 2 -19 5 -12 2 6 2 18 0 25 -3 6 -5 1 -5 -13z"/>
<path d="M1143 6065 c0 -22 2 -30 4 -17 2 12 2 30 0 40 -3 9 -5 -1 -4 -23z"/>
<path d="M1890 6063 c0 -24 5 -43 10 -43 13 0 13 50 0 70 -7 11 -10 4 -10 -27z"/>
<path d="M5323 5930 c1 -93 2 -168 3 -167 1 1 5 29 8 61 4 32 9 63 12 68 9 14
-7 208 -16 208 -4 0 -8 -76 -7 -170z"/>
<path d="M4011 6044 c-8 -29 -7 -40 4 -51 13 -13 15 -8 15 36 0 28 -2 51 -5
51 -2 0 -9 -16 -14 -36z"/>
<path d="M2351 6055 c0 -11 6 -49 14 -85 l14 -65 -6 60 c-6 64 -21 126 -22 90z"/>
<path d="M4617 5963 c-30 -167 -29 -161 -17 -135 12 28 43 207 38 222 -2 6
-11 -33 -21 -87z"/>
<path d="M4676 5933 c-8 -158 -22 -295 -38 -363 l-12 -51 -79 2 c-59 1 -81 -2
-88 -12 -15 -23 -10 -29 19 -24 56 10 120 13 130 6 11 -7 -5 -92 -22 -120 -4
-6 -3 -11 1 -11 19 0 65 158 88 304 14 85 22 382 12 393 -3 2 -8 -53 -11 -124z"/>
<path d="M5973 5890 c0 -105 2 -118 6 -61 3 41 3 102 0 135 -4 41 -6 16 -6
-74z"/>
<path d="M5870 5961 c0 -12 5 -21 10 -21 6 0 10 6 10 14 0 8 -4 18 -10 21 -5
3 -10 -3 -10 -14z"/>
<path d="M2496 5875 c3 -44 8 -82 10 -84 12 -12 11 13 -1 84 l-14 80 5 -80z"/>
<path d="M6151 5920 c0 -29 1 -32 10 -17 7 11 7 23 0 35 -9 14 -10 11 -10 -18z"/>
<path d="M1882 5900 c0 -19 2 -27 5 -17 2 9 2 25 0 35 -3 9 -5 1 -5 -18z"/>
<path d="M1921 5904 c0 -11 3 -14 6 -6 3 7 2 16 -1 19 -3 4 -6 -2 -5 -13z"/>
<path d="M2381 5880 c-1 -14 13 -77 30 -140 17 -63 33 -125 36 -138 3 -12 9
-25 14 -27 4 -3 1 18 -8 47 -8 29 -28 105 -44 168 -15 63 -28 104 -28 90z"/>
<path d="M3521 5874 c0 -11 3 -14 6 -6 3 7 2 16 -1 19 -3 4 -6 -2 -5 -13z"/>
<path d="M6152 5855 c0 -16 2 -22 5 -12 2 9 2 23 0 30 -3 6 -5 -1 -5 -18z"/>
<path d="M1931 5850 c-2 -38 35 -178 44 -168 3 2 -4 36 -14 74 -11 38 -21 80
-24 94 l-4 25 -2 -25z"/>
<path d="M3440 5820 c-7 -28 -10 -53 -7 -56 2 -3 10 18 17 46 7 28 10 53 7 56
-2 3 -10 -18 -17 -46z"/>
<path d="M2960 5844 c0 -3 9 -17 20 -31 21 -27 24 -23 14 15 -5 19 -34 33 -34
16z"/>
<path d="M5052 5815 c-15 -33 -15 -48 0 -43 11 4 25 68 15 68 -2 0 -9 -11 -15
-25z"/>
<path d="M3306 5809 c-3 -8 -23 -70 -45 -139 -22 -69 -56 -170 -76 -225 -21
-55 -39 -109 -41 -120 -12 -60 100 234 118 310 10 45 28 70 28 40 0 -38 9 -8
19 65 9 70 8 101 -3 69z"/>
<path d="M5858 5814 c-5 -4 -8 -26 -7 -48 l1 -41 9 33 c11 37 9 68 -3 56z"/>
<path d="M1640 5739 c0 -35 -3 -74 -6 -85 -4 -14 0 -23 11 -27 14 -6 15 3 10
80 -7 105 -15 121 -15 32z"/>
<path d="M4576 5784 c-4 -9 -4 -19 -1 -22 2 -3 7 3 11 12 4 9 4 19 1 22 -2 3
-7 -3 -11 -12z"/>
<path d="M3511 5745 c-1 -22 -8 -76 -16 -120 -15 -84 -18 -111 -11 -104 10 10
37 199 33 230 -4 33 -4 33 -6 -6z"/>
<path d="M4807 5715 c-4 -27 -8 -82 -10 -122 -2 -76 -7 -89 -31 -80 -13 5 -14
12 -5 34 13 35 -3 19 -27 -27 -51 -95 -174 -259 -174 -230 0 8 -11 -1 -24 -20
-13 -19 -22 -37 -19 -40 8 -9 156 155 185 206 37 66 77 81 79 30 1 -52 19 31
30 138 11 120 9 200 -4 111z"/>
<path d="M2042 5730 c0 -14 2 -19 5 -12 2 6 2 18 0 25 -3 6 -5 1 -5 -13z"/>
<path d="M3416 5734 c-4 -9 -4 -19 -1 -22 2 -3 7 3 11 12 4 9 4 19 1 22 -2 3
-7 -3 -11 -12z"/>
<path d="M6143 5715 c0 -22 2 -30 4 -17 2 12 2 30 0 40 -3 9 -5 -1 -4 -23z"/>
<path d="M4147 5733 c-11 -10 -8 -43 3 -43 6 0 10 11 10 25 0 26 -2 29 -13 18z"/>
<path d="M3756 5654 c-16 -35 -15 -57 3 -38 9 9 25 74 19 74 -3 0 -12 -16 -22
-36z"/>
<path d="M4012 5665 c0 -16 2 -22 5 -12 2 9 2 23 0 30 -3 6 -5 -1 -5 -18z"/>
<path d="M1981 5660 c0 -8 6 -28 14 -45 17 -39 18 -21 0 25 -7 19 -14 28 -14
20z"/>
<path d="M5311 5654 c0 -11 3 -14 6 -6 3 7 2 16 -1 19 -3 4 -6 -2 -5 -13z"/>
<path d="M3386 5645 c-9 -26 -7 -32 5 -12 6 10 9 21 6 23 -2 3 -7 -2 -11 -11z"/>
<path d="M2061 5614 c0 -11 3 -14 6 -6 3 7 2 16 -1 19 -3 4 -6 -2 -5 -13z"/>
<path d="M4000 5597 c0 -14 -4 -37 -10 -51 -9 -25 -12 -26 -99 -26 -62 0 -91
4 -93 12 -4 10 -39 -38 -83 -112 -8 -13 -6 -13 7 -2 16 13 168 42 221 42 18 0
27 -5 27 -16 0 -8 4 -13 8 -10 11 7 37 174 29 183 -4 3 -7 -5 -7 -20z m-20
-96 c0 -6 -5 -13 -12 -17 -14 -9 -200 -36 -206 -30 -2 2 1 13 7 25 8 15 24 21
59 24 98 7 152 7 152 -2z"/>
<path d="M5297 5606 c-4 -10 -7 -25 -6 -34 0 -11 4 -9 10 7 5 13 8 29 6 35 -2
5 -6 2 -10 -8z"/>
<path d="M1666 5562 c2 -29 9 -62 15 -75 8 -18 9 -16 4 13 -3 19 -9 53 -15 75
-9 38 -9 38 -4 -13z"/>
<path d="M3815 5580 c-9 -16 -13 -30 -11 -30 3 0 12 14 21 30 9 17 13 30 11
30 -3 0 -12 -13 -21 -30z"/>
<path d="M1633 5535 c0 -38 2 -53 4 -32 2 20 2 52 0 70 -2 17 -4 1 -4 -38z"/>
<path d="M3356 5565 c-3 -9 -6 -22 -5 -28 0 -7 5 -1 10 12 5 13 8 26 5 28 -2
2 -6 -3 -10 -12z"/>
<path d="M2522 5545 c0 -16 2 -22 5 -12 2 9 2 23 0 30 -3 6 -5 -1 -5 -18z"/>
<path d="M1442 5530 c-1 -53 12 -115 23 -112 6 2 11 -3 13 -11 2 -9 -9 -17
-28 -21 -37 -7 -30 -29 8 -24 22 3 29 -5 63 -72 21 -41 48 -86 59 -100 12 -14
25 -32 30 -40 17 -26 30 8 29 75 -1 53 -2 56 -10 30 -5 -16 -8 -45 -5 -62 6
-38 -5 -43 -26 -10 -33 50 -86 154 -98 192 -7 22 -15 45 -19 50 -3 6 -13 39
-22 75 -14 53 -17 59 -17 30z"/>
<path d="M3673 5503 c-77 -135 -160 -239 -253 -317 -55 -46 -32 -37 30 13 53
42 50 38 124 135 51 66 63 77 84 73 21 -4 27 3 53 57 16 33 29 68 28 76 0 9
-4 6 -11 -7 -6 -13 -17 -23 -25 -23 -11 0 -11 4 -3 20 22 41 0 18 -27 -27z
m30 -30 c-9 -27 -24 -43 -39 -43 -12 0 -12 5 1 30 17 32 49 43 38 13z"/>
<path d="M4076 5535 c-4 -11 -25 -55 -46 -98 -21 -42 -34 -75 -29 -71 5 3 21
28 34 55 25 48 27 49 70 49 41 0 45 2 45 25 0 21 -5 25 -29 25 -20 0 -31 6
-34 18 -3 15 -5 15 -11 -3z m62 -37 c-5 -15 -68 -24 -68 -10 0 15 13 22 43 22
18 0 27 -4 25 -12z"/>
<path d="M5270 5503 c-7 -21 -35 -85 -61 -142 -52 -110 -60 -144 -16 -63 32
59 100 232 94 239 -3 2 -11 -13 -17 -34z"/>
<path d="M2080 5525 c0 -5 5 -17 10 -25 5 -8 10 -10 10 -5 0 6 -5 17 -10 25
-5 8 -10 11 -10 5z"/>
<path d="M1882 5458 c-2 -64 21 -214 34 -227 3 -3 4 8 1 24 -3 17 -9 49 -12
73 l-7 42 69 0 c100 -1 155 -14 173 -41 8 -13 23 -32 33 -43 18 -20 18 -20 3
10 -8 17 -22 37 -31 44 -9 8 -28 36 -42 63 -18 37 -27 47 -36 38 -6 -6 -46
-11 -93 -11 l-83 0 -4 48 c-3 40 -4 37 -5 -20z m207 -57 c6 -10 9 -20 6 -22
-2 -2 -46 0 -99 5 -136 14 -125 31 21 35 52 1 64 -2 72 -18z"/>
<path d="M3262 5500 c0 -14 2 -19 5 -12 2 6 2 18 0 25 -3 6 -5 1 -5 -13z"/>
<path d="M4907 5507 c-3 -9 17 -13 71 -15 46 -2 79 -8 84 -15 5 -8 8 -5 8 8 0
17 -7 20 -47 20 -27 0 -62 3 -80 7 -21 5 -33 3 -36 -5z"/>
<path d="M2596 5497 c3 -10 9 -15 12 -12 3 3 0 11 -7 18 -10 9 -11 8 -5 -6z"/>
<path d="M3471 5494 c0 -11 3 -14 6 -6 3 7 2 16 -1 19 -3 4 -6 -2 -5 -13z"/>
<path d="M2101 5460 c0 -8 4 -22 9 -30 12 -18 12 -2 0 25 -6 13 -9 15 -9 5z"/>
<path d="M2610 5465 c0 -5 5 -17 10 -25 5 -8 10 -10 10 -5 0 6 -5 17 -10 25
-5 8 -10 11 -10 5z"/>
<path d="M1695 5438 c5 -26 3 -28 -30 -28 -33 0 -35 -2 -35 -32 0 -29 1 -30
13 -14 10 14 23 17 45 14 37 -5 40 8 16 57 l-14 30 5 -27z"/>
<path d="M3297 5418 c-9 -31 -2 -33 11 -3 6 14 8 25 3 25 -5 0 -11 -10 -14
-22z"/>
<path d="M3392 5405 c-35 -18 -69 -38 -77 -45 -7 -6 -21 -10 -30 -8 -11 2 -25
-12 -41 -42 -13 -25 -30 -49 -37 -55 -15 -11 -50 -95 -43 -102 2 -3 14 13 25
35 11 22 33 49 48 59 42 30 164 84 174 78 4 -3 -1 -29 -12 -57 -11 -28 -18
-52 -16 -55 6 -6 53 115 66 171 6 27 10 50 9 52 -2 1 -32 -12 -66 -31z m33
-39 c-9 -14 -27 -28 -38 -32 -12 -3 -48 -19 -81 -36 -32 -16 -61 -27 -64 -24
-10 11 65 71 129 104 66 34 82 31 54 -12z"/>
<path d="M4405 5414 c-9 -15 -12 -23 -6 -20 11 7 35 46 28 46 -3 0 -12 -12
-22 -26z"/>
<path d="M4771 5423 c-1 -6 -4 -20 -7 -30 -5 -17 -5 -17 6 0 6 10 9 23 6 30
-3 9 -5 9 -5 0z"/>
<path d="M4280 5395 c-15 -28 -140 -135 -158 -135 -6 0 -16 -9 -22 -21 -10
-18 -9 -19 7 -10 10 5 47 35 83 65 36 31 70 54 77 51 7 -2 17 11 23 31 14 43
8 53 -10 19z"/>
<path d="M3241 5394 c0 -11 3 -14 6 -6 3 7 2 16 -1 19 -3 4 -6 -2 -5 -13z"/>
<path d="M3681 5378 c-14 -23 -14 -23 8 -4 22 20 25 26 13 26 -4 0 -13 -10
-21 -22z"/>
<path d="M4833 5388 c-15 -20 -25 -38 -20 -38 3 0 12 11 21 25 17 26 16 35 -1
13z"/>
<path d="M5051 5364 c0 -11 3 -14 6 -6 3 7 2 16 -1 19 -3 4 -6 -2 -5 -13z"/>
<path d="M3231 5363 c-1 -6 -4 -20 -7 -30 -5 -17 -5 -17 6 0 6 10 9 23 6 30
-3 9 -5 9 -5 0z"/>
<path d="M2540 5343 c1 -10 8 -29 16 -43 l15 -25 -5 34 c-3 18 -6 37 -6 42 0
5 -4 9 -10 9 -5 0 -10 -8 -10 -17z"/>
<path d="M2784 5329 c3 -17 6 -39 7 -48 0 -9 5 -2 10 14 10 33 3 65 -13 65 -6
0 -8 -12 -4 -31z"/>
<path d="M4331 5314 c-18 -24 -37 -44 -42 -44 -5 0 -9 -5 -9 -11 0 -8 5 -7 15
1 22 18 78 90 74 94 -2 2 -19 -16 -38 -40z"/>
<path d="M4747 5341 c-4 -17 -3 -21 5 -13 5 5 8 16 6 23 -3 8 -7 3 -11 -10z"/>
<path d="M3639 5333 c-27 -32 -70 -103 -62 -102 13 0 85 99 81 110 -2 6 -10 2
-19 -8z"/>
<path d="M4570 5330 c-6 -11 -8 -20 -6 -20 3 0 10 9 16 20 6 11 8 20 6 20 -3
0 -10 -9 -16 -20z"/>
<path d="M1780 5328 c0 -19 18 -43 25 -36 9 9 -4 48 -16 48 -5 0 -9 -6 -9 -12z"/>
<path d="M1740 5310 c0 -8 5 -22 10 -30 9 -13 10 -13 10 0 0 8 -5 22 -10 30
-9 13 -10 13 -10 0z"/>
<path d="M3931 5304 c0 -11 3 -14 6 -6 3 7 2 16 -1 19 -3 4 -6 -2 -5 -13z"/>
<path d="M3207 5291 c-4 -17 -3 -21 5 -13 5 5 8 16 6 23 -3 8 -7 3 -11 -10z"/>
<path d="M4756 5293 c-6 -14 -5 -15 5 -6 7 7 10 15 7 18 -3 3 -9 -2 -12 -12z"/>
<path d="M3122 5275 c-17 -37 -14 -45 4 -12 9 16 14 31 11 33 -2 2 -9 -7 -15
-21z"/>
<path d="M1835 5250 c9 -16 18 -30 21 -30 2 0 -2 14 -11 30 -9 17 -18 30 -21
30 -2 0 2 -13 11 -30z"/>
<path d="M5366 5238 c-32 -265 -72 -457 -116 -556 -24 -54 -26 -90 -3 -47 29
53 72 191 92 297 22 116 46 336 38 344 -3 3 -8 -14 -11 -38z"/>
<path d="M4706 5251 c-19 -21 -12 -28 13 -12 7 5 12 14 9 21 -2 7 -10 4 -22
-9z"/>
<path d="M2208 5234 c43 -63 130 -133 145 -117 11 10 -3 23 -25 23 -11 0 -45
26 -81 63 -33 34 -51 48 -39 31z"/>
<path d="M4233 5244 c-8 -22 5 -30 23 -12 14 14 14 16 -1 21 -9 4 -18 1 -22
-9z"/>
<path d="M1771 5242 c-1 -22 32 -78 37 -63 2 7 0 16 -5 20 -5 3 -14 17 -20 31
-6 14 -12 19 -12 12z"/>
<path d="M2720 5244 c0 -8 60 -94 66 -94 3 0 1 6 -3 13 -5 6 -19 29 -32 50
-22 35 -31 44 -31 31z"/>
<path d="M3896 5234 c-9 -24 -7 -28 9 -14 17 14 20 30 6 30 -5 0 -12 -7 -15
-16z"/>
<path d="M5751 5224 c0 -11 3 -14 6 -6 3 7 2 16 -1 19 -3 4 -6 -2 -5 -13z"/>
<path d="M5130 5210 c-6 -11 -8 -20 -6 -20 3 0 10 9 16 20 6 11 8 20 6 20 -3
0 -10 -9 -16 -20z"/>
<path d="M2880 5213 c0 -6 8 -17 18 -24 16 -13 16 -13 2 6 -8 11 -16 22 -17
24 -2 2 -3 0 -3 -6z"/>
<path d="M5741 5184 c0 -11 3 -14 6 -6 3 7 2 16 -1 19 -3 4 -6 -2 -5 -13z"/>
<path d="M2480 5160 c14 -11 29 -20 33 -20 5 0 38 -29 73 -65 35 -35 64 -62
64 -59 0 19 -74 98 -121 128 -59 38 -91 49 -49 16z"/>
<path d="M5066 5125 c-26 -30 -44 -55 -39 -55 7 0 47 45 81 92 26 36 5 17 -42
-37z"/>
<path d="M3345 5150 c-3 -5 1 -10 9 -10 9 0 16 5 16 10 0 6 -4 10 -9 10 -6 0
-13 -4 -16 -10z"/>
<path d="M1930 5136 c0 -8 5 -18 10 -21 6 -3 10 1 10 9 0 8 -4 18 -10 21 -5 3
-10 -1 -10 -9z"/>
<path d="M3024 5108 l-19 -23 23 19 c21 18 27 26 19 26 -2 0 -12 -10 -23 -22z"/>
<path d="M2815 5110 c3 -5 8 -10 11 -10 2 0 4 5 4 10 0 6 -5 10 -11 10 -5 0
-7 -4 -4 -10z"/>
<path d="M2977 5079 c7 -7 15 -10 18 -7 3 3 -2 9 -12 12 -14 6 -15 5 -6 -5z"/>
<path d="M4008 5050 c-197 -13 -358 -33 -365 -43 -4 -7 19 -8 68 -3 l73 7 -29
-29 c-38 -37 -110 -141 -102 -148 3 -3 32 30 65 73 33 43 68 85 78 95 31 27
222 41 497 36 133 -2 224 0 202 4 -68 12 -364 17 -487 8z"/>
<path d="M4966 5035 c-3 -8 -2 -15 3 -15 5 0 14 7 21 15 10 12 10 15 -3 15 -8
0 -17 -7 -21 -15z"/>
<path d="M2560 5024 c0 -6 14 -29 31 -50 18 -22 47 -70 65 -109 37 -78 45 -66
13 19 -19 51 -108 165 -109 140z"/>
<path d="M4669 5005 c63 -14 123 -27 135 -30 16 -5 17 -4 6 4 -19 11 -201 51
-232 50 -13 0 28 -11 91 -24z"/>
<path d="M2135 4980 c-90 -9 -307 -52 -375 -74 -71 -23 -28 -18 78 8 162 41
295 57 437 54 l130 -3 43 -64 c24 -35 41 -70 38 -77 -6 -16 10 -29 18 -15 7
11 -19 75 -46 112 -12 16 -20 31 -17 33 2 3 30 -2 62 -9 43 -10 57 -10 54 -2
-10 31 -267 54 -422 37z"/>
<path d="M3860 4786 l44 -24 -49 -4 c-35 -3 -71 3 -119 19 -38 13 -73 23 -78
23 -18 0 -6 -20 19 -34 30 -15 39 -12 -119 -42 -55 -11 -26 -24 52 -24 45 0
80 -4 80 -10 0 -5 -21 -66 -46 -136 -25 -69 -43 -128 -41 -130 3 -3 19 21 37
53 18 32 47 83 64 114 58 104 52 100 151 110 50 5 95 7 102 5 8 -3 10 -17 6
-39 -5 -33 -4 -34 34 -40 50 -8 78 -36 60 -60 -6 -8 -25 -17 -41 -19 l-30 -3
35 -39 c41 -47 96 -73 171 -82 134 -16 228 45 267 171 12 37 21 80 21 95 0 19
6 30 18 34 20 5 209 18 327 21 95 3 94 3 73 15 -28 17 -258 31 -533 34 -143 2
-276 6 -295 10 -33 7 -34 7 -16 -8 19 -15 16 -16 -45 -16 -36 0 -91 7 -122 15
-77 20 -80 19 -27 -9z m518 -202 c22 -15 28 -47 16 -78 -4 -9 -31 -28 -61 -43
-49 -23 -64 -25 -125 -20 -100 9 -200 70 -158 97 21 14 33 12 24 -2 -5 -9 -2
-8 10 1 15 12 19 12 34 -3 16 -16 16 -17 0 -10 -10 3 -18 3 -18 0 0 -14 52
-27 65 -16 13 11 78 8 106 -4 13 -6 16 -2 12 16 -5 28 30 78 56 78 9 0 27 -7
39 -16z"/>
<path d="M2322 4768 c-9 -9 -53 -11 -151 -10 -140 3 -397 -12 -461 -28 -23 -5
23 -8 139 -9 l173 -1 -6 -22 c-3 -13 -3 -39 0 -59 6 -34 9 -37 46 -42 22 -3
45 -10 51 -16 17 -17 -5 -45 -37 -49 l-26 -3 17 -30 c71 -120 291 -121 348 -2
9 18 20 35 25 38 6 3 10 17 10 31 0 47 12 35 70 -71 33 -61 60 -97 60 -80 0 6
-18 59 -40 119 -22 61 -40 116 -40 123 0 8 12 13 32 13 40 0 28 14 -27 32 -22
8 -39 18 -38 24 1 5 -28 10 -63 10 -74 2 -86 8 -58 29 15 11 16 14 4 15 -9 0
-21 -5 -28 -12z m65 -265 c8 -21 -23 -43 -59 -43 -23 0 -28 4 -28 24 0 33 36
59 62 45 11 -6 22 -17 25 -26z m-233 -13 c4 0 14 -7 22 -15 9 -8 11 -15 5 -15
-14 0 -71 50 -71 62 0 6 8 1 19 -10 10 -12 22 -22 25 -22z m79 -37 c-7 -2 -19
-2 -25 0 -7 3 -2 5 12 5 14 0 19 -2 13 -5z m50 0 c-7 -2 -19 -2 -25 0 -7 3 -2
5 12 5 14 0 19 -2 13 -5z"/>
<path d="M1451 4624 c0 -11 3 -14 6 -6 3 7 2 16 -1 19 -3 4 -6 -2 -5 -13z"/>
<path d="M5210 4580 c-6 -12 -9 -24 -7 -27 3 -2 11 5 17 17 6 12 9 24 7 27 -3
2 -11 -5 -17 -17z"/>
<path d="M4590 4424 c-90 -72 -198 -122 -300 -137 -18 -3 -15 -5 11 -6 19 0
41 -7 48 -13 10 -11 12 -10 9 0 -2 8 4 17 12 22 46 23 128 53 151 54 14 1 26
6 25 12 -1 14 92 94 110 94 8 0 12 5 9 10 -9 15 -16 12 -75 -36z"/>
<path d="M1863 4438 c-1 -10 3 -18 10 -18 19 0 76 -62 70 -76 -3 -9 0 -12 8
-9 19 6 53 -21 44 -35 -4 -7 1 -7 14 2 l21 13 -21 8 c-12 4 -49 36 -83 70 -46
46 -62 58 -63 45z"/>
<path d="M3870 4329 c39 -16 192 -49 225 -48 17 0 -6 7 -50 15 -44 8 -102 21
-129 29 -56 17 -84 19 -46 4z"/>
<path d="M2310 4320 c-30 -5 -104 -9 -165 -11 l-110 -2 95 -6 c89 -6 241 7
257 22 7 8 2 7 -77 -3z"/>
<path d="M4163 4270 c21 -4 53 -4 70 0 24 6 15 8 -38 8 -58 0 -64 -2 -32 -8z"/>
<path d="M7255 1060 c3 -5 10 -10 16 -10 5 0 9 5 9 10 0 6 -7 10 -16 10 -8 0
-12 -4 -9 -10z"/>
</g>
</svg>
